<svg width="72" height="11" viewBox="0 0 72 11" fill="none" xmlns="http://www.w3.org/2000/svg">
<g clip-path="url(#clip0)">
<path d="M2.69019 10.617C2.4027 10.7532 2.07648 10.5146 2.13458 10.21L2.75275 6.95817L0.128853 4.65092C-0.116183 4.43504 0.011176 4.04042 0.339629 3.99779L3.98762 3.51929L5.61424 0.544478C5.76097 0.276353 6.15794 0.276353 6.30467 0.544478L7.93129 3.51929L11.5793 3.99779C11.9077 4.04042 12.0351 4.43504 11.7893 4.65092L9.16616 6.95817L9.78433 10.21C9.84243 10.5146 9.51621 10.7532 9.22872 10.617L5.95834 9.06604L2.68945 10.617H2.69019Z" fill="#FF6634"/>
</g>
<g clip-path="url(#clip1)">
<path d="M17.586 10.617C17.2985 10.7532 16.9723 10.5146 17.0304 10.21L17.6486 6.95817L15.0247 4.65092C14.7797 4.43504 14.907 4.04042 15.2355 3.99779L18.8835 3.51929L20.5101 0.544478C20.6568 0.276353 21.0538 0.276353 21.2005 0.544478L22.8271 3.51929L26.4751 3.99779C26.8036 4.04042 26.9309 4.43504 26.6852 4.65092L24.062 6.95817L24.6802 10.21C24.7383 10.5146 24.4121 10.7532 24.1246 10.617L20.8542 9.06604L17.5853 10.617H17.586Z" fill="#FF6634"/>
</g>
<g clip-path="url(#clip2)">
<path d="M32.4818 10.617C32.1944 10.7532 31.8681 10.5146 31.9262 10.21L32.5444 6.95817L29.9205 4.65092C29.6755 4.43504 29.8028 4.04042 30.1313 3.99779L33.7793 3.51929L35.4059 0.544478C35.5526 0.276353 35.9496 0.276353 36.0963 0.544478L37.7229 3.51929L41.3709 3.99779C41.6994 4.04042 41.8267 4.43504 41.581 4.65092L38.9578 6.95817L39.576 10.21C39.6341 10.5146 39.3079 10.7532 39.0204 10.617L35.75 9.06604L32.4811 10.617H32.4818Z" fill="#FF6634"/>
</g>
<g clip-path="url(#clip3)">
<path d="M47.3777 10.617C47.0902 10.7532 46.764 10.5146 46.8221 10.21L47.4403 6.95817L44.8164 4.65092C44.5713 4.43504 44.6987 4.04042 45.0271 3.99779L48.6751 3.51929L50.3017 0.544478C50.4485 0.276353 50.8454 0.276353 50.9922 0.544478L52.6188 3.51929L56.2668 3.99779C56.5952 4.04042 56.7226 4.43504 56.4768 4.65092L53.8537 6.95817L54.4718 10.21C54.5299 10.5146 54.2037 10.7532 53.9162 10.617L50.6458 9.06604L47.3769 10.617H47.3777Z" fill="#FF6634"/>
</g>
<g clip-path="url(#clip4)">
<path d="M62.2735 10.617C61.986 10.7532 61.6598 10.5146 61.7179 10.21L62.3361 6.95817L59.7122 4.65092C59.4672 4.43504 59.5945 4.04042 59.923 3.99779L63.571 3.51929L65.1976 0.544478C65.3443 0.276353 65.7413 0.276353 65.888 0.544478L67.5146 3.51929L71.1626 3.99779C71.4911 4.04042 71.6184 4.43504 71.3727 4.65092L68.7495 6.95817L69.3677 10.21C69.4258 10.5146 69.0996 10.7532 68.8121 10.617L65.5417 9.06604L62.2728 10.617H62.2735Z" fill="#EDEDED"/>
</g>
<defs>
<clipPath id="clip0">
<rect width="11.9167" height="11" fill="white"/>
</clipPath>
<clipPath id="clip1">
<rect width="11.9167" height="11" fill="white" transform="translate(14.8958)"/>
</clipPath>
<clipPath id="clip2">
<rect width="11.9167" height="11" fill="white" transform="translate(29.7917)"/>
</clipPath>
<clipPath id="clip3">
<rect width="11.9167" height="11" fill="white" transform="translate(44.6875)"/>
</clipPath>
<clipPath id="clip4">
<rect width="11.9167" height="11" fill="white" transform="translate(59.5833)"/>
</clipPath>
</defs>
</svg>
