<svg width="48" height="48" viewBox="0 0 48 48" fill="none" xmlns="http://www.w3.org/2000/svg">
<circle cx="24" cy="24" r="23.5" stroke="#393C4D"/>
<path d="M20.205 18.75C20.2048 19.1478 20.0466 19.5293 19.7651 19.8105C19.4837 20.0916 19.1021 20.2495 18.7042 20.2493C18.3064 20.2491 17.925 20.0908 17.6438 19.8094C17.3626 19.528 17.2048 19.1463 17.205 18.7485C17.2052 18.3507 17.3634 17.9692 17.6449 17.6881C17.9263 17.4069 18.3079 17.2491 18.7057 17.2493C19.1036 17.2495 19.485 17.4077 19.7662 17.6891C20.0473 17.9706 20.2052 18.3522 20.205 18.75ZM20.25 21.36H17.25V30.75H20.25V21.36ZM24.99 21.36H22.005V30.75H24.96V25.8225C24.96 23.0775 28.5375 22.8225 28.5375 25.8225V30.75H31.5V24.8025C31.5 20.175 26.205 20.3475 24.96 22.62L24.99 21.36Z" fill="white"/>
</svg>
