<svg width="398" height="70" viewBox="0 0 398 70" fill="none" xmlns="http://www.w3.org/2000/svg">
<path d="M49.744 21.774L48.764 24H47L51.312 14.214H53.076L57.388 24H55.624L54.644 21.774H49.744ZM53.972 20.248L52.194 16.216L50.416 20.248H53.972ZM63.9344 24H62.3664V13.612H63.9344V24ZM67.7762 24H66.2082V16.552H67.7762V24ZM66.3062 15.068C66.1102 14.872 66.0122 14.6387 66.0122 14.368C66.0122 14.0973 66.1102 13.864 66.3062 13.668C66.5022 13.472 66.7356 13.374 67.0062 13.374C67.2769 13.374 67.5102 13.472 67.7062 13.668C67.9022 13.864 68.0002 14.0973 68.0002 14.368C68.0002 14.6387 67.9022 14.872 67.7062 15.068C67.5102 15.264 67.2769 15.362 67.0062 15.362C66.7356 15.362 66.5022 15.264 66.3062 15.068ZM71.982 15.936V16.552H73.942V17.812H71.982V24H70.414V17.812H69.476V16.552H70.414V15.978C70.414 15.194 70.6473 14.5733 71.114 14.116C71.59 13.6493 72.1593 13.416 72.822 13.416C73.494 13.416 74.1053 13.6633 74.656 14.158L74.012 15.264C73.704 14.9373 73.382 14.774 73.046 14.774C72.71 14.774 72.4487 14.8813 72.262 15.096C72.0753 15.3013 71.982 15.5813 71.982 15.936ZM82.3804 20.962H76.5424C76.5797 21.5033 76.8271 21.942 77.2844 22.278C77.7417 22.6047 78.2644 22.768 78.8524 22.768C79.7857 22.768 80.4951 22.474 80.9804 21.886L81.8764 22.866C81.0737 23.6967 80.0284 24.112 78.7404 24.112C77.6951 24.112 76.8037 23.7667 76.0664 23.076C75.3384 22.376 74.9744 21.4427 74.9744 20.276C74.9744 19.1 75.3477 18.1667 76.0944 17.476C76.8411 16.7853 77.7184 16.44 78.7264 16.44C79.7437 16.44 80.6071 16.748 81.3164 17.364C82.0257 17.9707 82.3804 18.8107 82.3804 19.884V20.962ZM76.5424 19.73H80.8124C80.8124 19.1047 80.6164 18.624 80.2244 18.288C79.8324 17.952 79.3471 17.784 78.7684 17.784C78.1991 17.784 77.6857 17.9613 77.2284 18.316C76.7711 18.6613 76.5424 19.1327 76.5424 19.73ZM93.2525 21.774C93.2525 22.4833 92.9958 23.0527 92.4825 23.482C91.9692 23.902 91.3112 24.112 90.5085 24.112C89.9672 24.112 89.4025 24.014 88.8145 23.818C88.2358 23.622 87.7225 23.3467 87.2745 22.992L88.0305 21.774C88.8985 22.4273 89.7385 22.754 90.5505 22.754C90.9052 22.754 91.1852 22.6747 91.3905 22.516C91.5958 22.348 91.6985 22.138 91.6985 21.886C91.6985 21.5127 91.2038 21.1767 90.2145 20.878C90.1398 20.85 90.0838 20.8313 90.0465 20.822C88.4972 20.402 87.7225 19.702 87.7225 18.722C87.7225 18.0313 87.9885 17.4807 88.5205 17.07C89.0618 16.65 89.7618 16.44 90.6205 16.44C91.4792 16.44 92.2912 16.692 93.0565 17.196L92.4685 18.358C91.8618 17.9567 91.2038 17.756 90.4945 17.756C90.1212 17.756 89.8178 17.826 89.5845 17.966C89.3512 18.0967 89.2345 18.2973 89.2345 18.568C89.2345 18.8107 89.3558 18.988 89.5985 19.1C89.7665 19.184 89.9998 19.2633 90.2985 19.338C90.6065 19.4127 90.8772 19.4873 91.1105 19.562C91.3438 19.6367 91.5678 19.7207 91.7825 19.814C92.0065 19.9073 92.2445 20.038 92.4965 20.206C93.0005 20.542 93.2525 21.0647 93.2525 21.774ZM99.0185 16.44C100.017 16.44 100.871 16.7853 101.581 17.476C102.29 18.1667 102.645 19.086 102.645 20.234C102.645 21.382 102.29 22.3153 101.581 23.034C100.881 23.7527 100.059 24.112 99.1165 24.112C98.1832 24.112 97.3432 23.7013 96.5965 22.88V26.716H95.0285V16.552H96.5965V17.854C97.2125 16.9113 98.0199 16.44 99.0185 16.44ZM96.5685 20.29C96.5685 20.9993 96.7832 21.5827 97.2125 22.04C97.6419 22.488 98.1645 22.712 98.7805 22.712C99.3965 22.712 99.9332 22.488 100.391 22.04C100.848 21.592 101.077 21.0133 101.077 20.304C101.077 19.5853 100.853 18.9927 100.405 18.526C99.9565 18.05 99.4199 17.812 98.7945 17.812C98.1692 17.812 97.6419 18.05 97.2125 18.526C96.7832 18.9927 96.5685 19.5807 96.5685 20.29ZM111.365 20.962H105.527C105.564 21.5033 105.811 21.942 106.269 22.278C106.726 22.6047 107.249 22.768 107.837 22.768C108.77 22.768 109.479 22.474 109.965 21.886L110.861 22.866C110.058 23.6967 109.013 24.112 107.725 24.112C106.679 24.112 105.788 23.7667 105.051 23.076C104.323 22.376 103.959 21.4427 103.959 20.276C103.959 19.1 104.332 18.1667 105.079 17.476C105.825 16.7853 106.703 16.44 107.711 16.44C108.728 16.44 109.591 16.748 110.301 17.364C111.01 17.9707 111.365 18.8107 111.365 19.884V20.962ZM105.527 19.73H109.797C109.797 19.1047 109.601 18.624 109.209 18.288C108.817 17.952 108.331 17.784 107.753 17.784C107.183 17.784 106.67 17.9613 106.213 18.316C105.755 18.6613 105.527 19.1327 105.527 19.73ZM114.657 19.968V24H113.089V16.552H114.657V17.91C114.909 17.4527 115.254 17.0933 115.693 16.832C116.141 16.5707 116.622 16.44 117.135 16.44C117.975 16.44 118.652 16.6967 119.165 17.21C119.688 17.7233 119.949 18.4653 119.949 19.436V24H118.381V19.912C118.381 18.54 117.812 17.854 116.673 17.854C116.132 17.854 115.66 18.036 115.259 18.4C114.858 18.7547 114.657 19.2773 114.657 19.968ZM123.976 17.812V21.592C123.976 21.9467 124.069 22.2313 124.256 22.446C124.443 22.6513 124.704 22.754 125.04 22.754C125.376 22.754 125.698 22.5907 126.006 22.264L126.65 23.37C126.099 23.8647 125.488 24.112 124.816 24.112C124.153 24.112 123.584 23.8833 123.108 23.426C122.641 22.9593 122.408 22.334 122.408 21.55V17.812H121.47V16.552H122.408V14.214H123.976V16.552H125.936V17.812H123.976ZM133.306 19.968V24H131.738V16.552H133.306V17.91C133.53 17.4527 133.866 17.0933 134.314 16.832C134.771 16.5707 135.261 16.44 135.784 16.44C136.96 16.44 137.758 16.9253 138.178 17.896C138.915 16.9253 139.834 16.44 140.936 16.44C141.776 16.44 142.452 16.6967 142.966 17.21C143.488 17.7233 143.75 18.4653 143.75 19.436V24H142.182V19.912C142.182 18.54 141.612 17.854 140.474 17.854C139.942 17.854 139.475 18.0267 139.074 18.372C138.682 18.708 138.476 19.2027 138.458 19.856V24H136.89V19.912C136.89 19.2027 136.764 18.6847 136.512 18.358C136.26 18.022 135.863 17.854 135.322 17.854C134.78 17.854 134.309 18.036 133.908 18.4C133.506 18.7547 133.306 19.2773 133.306 19.968ZM151.963 24H150.535V23.006C149.919 23.7433 149.093 24.112 148.057 24.112C147.282 24.112 146.638 23.8927 146.125 23.454C145.621 23.0153 145.369 22.432 145.369 21.704C145.369 20.9667 145.64 20.416 146.181 20.052C146.722 19.688 147.455 19.506 148.379 19.506H150.409V19.226C150.409 18.2367 149.858 17.742 148.757 17.742C148.066 17.742 147.348 17.994 146.601 18.498L145.901 17.518C146.806 16.7993 147.833 16.44 148.981 16.44C149.858 16.44 150.572 16.664 151.123 17.112C151.683 17.5507 151.963 18.246 151.963 19.198V24ZM150.395 21.228V20.598H148.631C147.502 20.598 146.937 20.9527 146.937 21.662C146.937 22.026 147.077 22.306 147.357 22.502C147.637 22.6887 148.024 22.782 148.519 22.782C149.023 22.782 149.462 22.642 149.835 22.362C150.208 22.082 150.395 21.704 150.395 21.228ZM155.714 24H154.146V13.612H155.714V19.716L158.738 16.552H160.754L157.926 19.506L160.964 24H159.06L156.848 20.738L155.714 21.886V24ZM163.848 24H162.28V16.552H163.848V24ZM162.378 15.068C162.182 14.872 162.084 14.6387 162.084 14.368C162.084 14.0973 162.182 13.864 162.378 13.668C162.574 13.472 162.808 13.374 163.078 13.374C163.349 13.374 163.582 13.472 163.778 13.668C163.974 13.864 164.072 14.0973 164.072 14.368C164.072 14.6387 163.974 14.872 163.778 15.068C163.582 15.264 163.349 15.362 163.078 15.362C162.808 15.362 162.574 15.264 162.378 15.068ZM167.69 19.968V24H166.122V16.552H167.69V17.91C167.942 17.4527 168.288 17.0933 168.726 16.832C169.174 16.5707 169.655 16.44 170.168 16.44C171.008 16.44 171.685 16.6967 172.198 17.21C172.721 17.7233 172.982 18.4653 172.982 19.436V24H171.414V19.912C171.414 18.54 170.845 17.854 169.706 17.854C169.165 17.854 168.694 18.036 168.292 18.4C167.891 18.7547 167.69 19.2773 167.69 19.968ZM182.061 16.552V23.048C182.061 24.364 181.702 25.3487 180.983 26.002C180.274 26.6647 179.359 26.996 178.239 26.996C177.119 26.996 176.106 26.646 175.201 25.946L175.943 24.756C176.671 25.3067 177.404 25.582 178.141 25.582C178.888 25.582 179.476 25.3907 179.905 25.008C180.344 24.6253 180.563 24.014 180.563 23.174V22.222C180.33 22.6607 179.994 23.0107 179.555 23.272C179.126 23.5333 178.64 23.664 178.099 23.664C177.11 23.664 176.298 23.3187 175.663 22.628C175.028 21.9373 174.711 21.0787 174.711 20.052C174.711 19.0253 175.028 18.1667 175.663 17.476C176.298 16.7853 177.105 16.44 178.085 16.44C179.074 16.44 179.877 16.846 180.493 17.658V16.552H182.061ZM176.251 19.996C176.251 20.6027 176.438 21.13 176.811 21.578C177.194 22.0167 177.702 22.236 178.337 22.236C178.981 22.236 179.499 22.0213 179.891 21.592C180.292 21.1627 180.493 20.6307 180.493 19.996C180.493 19.352 180.292 18.8107 179.891 18.372C179.49 17.924 178.972 17.7 178.337 17.7C177.702 17.7 177.194 17.9287 176.811 18.386C176.438 18.8433 176.251 19.38 176.251 19.996ZM189.743 19.968V24H188.175V16.552H189.743V17.91C189.967 17.4527 190.303 17.0933 190.751 16.832C191.208 16.5707 191.698 16.44 192.221 16.44C193.397 16.44 194.195 16.9253 194.615 17.896C195.352 16.9253 196.272 16.44 197.373 16.44C198.213 16.44 198.89 16.6967 199.403 17.21C199.926 17.7233 200.187 18.4653 200.187 19.436V24H198.619V19.912C198.619 18.54 198.05 17.854 196.911 17.854C196.379 17.854 195.912 18.0267 195.511 18.372C195.119 18.708 194.914 19.2027 194.895 19.856V24H193.327V19.912C193.327 19.2027 193.201 18.6847 192.949 18.358C192.697 18.022 192.3 17.854 191.759 17.854C191.218 17.854 190.746 18.036 190.345 18.4C189.944 18.7547 189.743 19.2773 189.743 19.968ZM203.934 24H202.366V16.552H203.934V24ZM202.464 15.068C202.268 14.872 202.17 14.6387 202.17 14.368C202.17 14.0973 202.268 13.864 202.464 13.668C202.66 13.472 202.894 13.374 203.164 13.374C203.435 13.374 203.668 13.472 203.864 13.668C204.06 13.864 204.158 14.0973 204.158 14.368C204.158 14.6387 204.06 14.872 203.864 15.068C203.668 15.264 203.435 15.362 203.164 15.362C202.894 15.362 202.66 15.264 202.464 15.068ZM211.514 21.774C211.514 22.4833 211.258 23.0527 210.744 23.482C210.231 23.902 209.573 24.112 208.77 24.112C208.229 24.112 207.664 24.014 207.076 23.818C206.498 23.622 205.984 23.3467 205.536 22.992L206.292 21.774C207.16 22.4273 208 22.754 208.812 22.754C209.167 22.754 209.447 22.6747 209.652 22.516C209.858 22.348 209.96 22.138 209.96 21.886C209.96 21.5127 209.466 21.1767 208.476 20.878C208.402 20.85 208.346 20.8313 208.308 20.822C206.759 20.402 205.984 19.702 205.984 18.722C205.984 18.0313 206.25 17.4807 206.782 17.07C207.324 16.65 208.024 16.44 208.882 16.44C209.741 16.44 210.553 16.692 211.318 17.196L210.73 18.358C210.124 17.9567 209.466 17.756 208.756 17.756C208.383 17.756 208.08 17.826 207.846 17.966C207.613 18.0967 207.496 18.2973 207.496 18.568C207.496 18.8107 207.618 18.988 207.86 19.1C208.028 19.184 208.262 19.2633 208.56 19.338C208.868 19.4127 209.139 19.4873 209.372 19.562C209.606 19.6367 209.83 19.7207 210.044 19.814C210.268 19.9073 210.506 20.038 210.758 20.206C211.262 20.542 211.514 21.0647 211.514 21.774ZM215.222 17.812V21.592C215.222 21.9467 215.316 22.2313 215.502 22.446C215.689 22.6513 215.95 22.754 216.286 22.754C216.622 22.754 216.944 22.5907 217.252 22.264L217.896 23.37C217.346 23.8647 216.734 24.112 216.062 24.112C215.4 24.112 214.83 23.8833 214.354 23.426C213.888 22.9593 213.654 22.334 213.654 21.55V17.812H212.716V16.552H213.654V14.214H215.222V16.552H217.182V17.812H215.222ZM225.176 24H223.748V23.006C223.132 23.7433 222.306 24.112 221.27 24.112C220.495 24.112 219.851 23.8927 219.338 23.454C218.834 23.0153 218.582 22.432 218.582 21.704C218.582 20.9667 218.852 20.416 219.394 20.052C219.935 19.688 220.668 19.506 221.592 19.506H223.622V19.226C223.622 18.2367 223.071 17.742 221.97 17.742C221.279 17.742 220.56 17.994 219.814 18.498L219.114 17.518C220.019 16.7993 221.046 16.44 222.194 16.44C223.071 16.44 223.785 16.664 224.336 17.112C224.896 17.5507 225.176 18.246 225.176 19.198V24ZM223.608 21.228V20.598H221.844C220.714 20.598 220.15 20.9527 220.15 21.662C220.15 22.026 220.29 22.306 220.57 22.502C220.85 22.6887 221.237 22.782 221.732 22.782C222.236 22.782 222.674 22.642 223.048 22.362C223.421 22.082 223.608 21.704 223.608 21.228ZM228.927 24H227.359V13.612H228.927V19.716L231.951 16.552H233.967L231.139 19.506L234.177 24H232.273L230.061 20.738L228.927 21.886V24ZM242.423 20.962H236.585C236.623 21.5033 236.87 21.942 237.327 22.278C237.785 22.6047 238.307 22.768 238.895 22.768C239.829 22.768 240.538 22.474 241.023 21.886L241.919 22.866C241.117 23.6967 240.071 24.112 238.783 24.112C237.738 24.112 236.847 23.7667 236.109 23.076C235.381 22.376 235.017 21.4427 235.017 20.276C235.017 19.1 235.391 18.1667 236.137 17.476C236.884 16.7853 237.761 16.44 238.769 16.44C239.787 16.44 240.65 16.748 241.359 17.364C242.069 17.9707 242.423 18.8107 242.423 19.884V20.962ZM236.585 19.73H240.855C240.855 19.1047 240.659 18.624 240.267 18.288C239.875 17.952 239.39 17.784 238.811 17.784C238.242 17.784 237.729 17.9613 237.271 18.316C236.814 18.6613 236.585 19.1327 236.585 19.73ZM249.454 21.774C249.454 22.4833 249.197 23.0527 248.684 23.482C248.17 23.902 247.512 24.112 246.71 24.112C246.168 24.112 245.604 24.014 245.016 23.818C244.437 23.622 243.924 23.3467 243.476 22.992L244.232 21.774C245.1 22.4273 245.94 22.754 246.752 22.754C247.106 22.754 247.386 22.6747 247.592 22.516C247.797 22.348 247.9 22.138 247.9 21.886C247.9 21.5127 247.405 21.1767 246.416 20.878C246.341 20.85 246.285 20.8313 246.248 20.822C244.698 20.402 243.924 19.702 243.924 18.722C243.924 18.0313 244.19 17.4807 244.722 17.07C245.263 16.65 245.963 16.44 246.822 16.44C247.68 16.44 248.492 16.692 249.258 17.196L248.67 18.358C248.063 17.9567 247.405 17.756 246.696 17.756C246.322 17.756 246.019 17.826 245.786 17.966C245.552 18.0967 245.436 18.2973 245.436 18.568C245.436 18.8107 245.557 18.988 245.8 19.1C245.968 19.184 246.201 19.2633 246.5 19.338C246.808 19.4127 247.078 19.4873 247.312 19.562C247.545 19.6367 247.769 19.7207 247.984 19.814C248.208 19.9073 248.446 20.038 248.698 20.206C249.202 20.542 249.454 21.0647 249.454 21.774ZM256.64 24H255.072V16.552H256.64V24ZM255.17 15.068C254.974 14.872 254.876 14.6387 254.876 14.368C254.876 14.0973 254.974 13.864 255.17 13.668C255.366 13.472 255.599 13.374 255.87 13.374C256.14 13.374 256.374 13.472 256.57 13.668C256.766 13.864 256.864 14.0973 256.864 14.368C256.864 14.6387 256.766 14.872 256.57 15.068C256.374 15.264 256.14 15.362 255.87 15.362C255.599 15.362 255.366 15.264 255.17 15.068ZM264.219 21.774C264.219 22.4833 263.963 23.0527 263.449 23.482C262.936 23.902 262.278 24.112 261.475 24.112C260.934 24.112 260.369 24.014 259.781 23.818C259.203 23.622 258.689 23.3467 258.241 22.992L258.997 21.774C259.865 22.4273 260.705 22.754 261.517 22.754C261.872 22.754 262.152 22.6747 262.357 22.516C262.563 22.348 262.665 22.138 262.665 21.886C262.665 21.5127 262.171 21.1767 261.181 20.878C261.107 20.85 261.051 20.8313 261.013 20.822C259.464 20.402 258.689 19.702 258.689 18.722C258.689 18.0313 258.955 17.4807 259.487 17.07C260.029 16.65 260.729 16.44 261.587 16.44C262.446 16.44 263.258 16.692 264.023 17.196L263.435 18.358C262.829 17.9567 262.171 17.756 261.461 17.756C261.088 17.756 260.785 17.826 260.551 17.966C260.318 18.0967 260.201 18.2973 260.201 18.568C260.201 18.8107 260.323 18.988 260.565 19.1C260.733 19.184 260.967 19.2633 261.265 19.338C261.573 19.4127 261.844 19.4873 262.077 19.562C262.311 19.6367 262.535 19.7207 262.749 19.814C262.973 19.9073 263.211 20.038 263.463 20.206C263.967 20.542 264.219 21.0647 264.219 21.774ZM271.405 19.968V24H269.837V16.552H271.405V17.91C271.657 17.4527 272.002 17.0933 272.441 16.832C272.889 16.5707 273.37 16.44 273.883 16.44C274.723 16.44 275.4 16.6967 275.913 17.21C276.436 17.7233 276.697 18.4653 276.697 19.436V24H275.129V19.912C275.129 18.54 274.56 17.854 273.421 17.854C272.88 17.854 272.408 18.036 272.007 18.4C271.606 18.7547 271.405 19.2773 271.405 19.968ZM280.624 22.04C281.072 22.488 281.637 22.712 282.318 22.712C282.999 22.712 283.559 22.488 283.998 22.04C284.446 21.5827 284.67 20.9947 284.67 20.276C284.67 19.5573 284.446 18.974 283.998 18.526C283.559 18.0687 282.999 17.84 282.318 17.84C281.637 17.84 281.072 18.0687 280.624 18.526C280.185 18.974 279.966 19.5573 279.966 20.276C279.966 20.9947 280.185 21.5827 280.624 22.04ZM285.118 23.006C284.371 23.7433 283.438 24.112 282.318 24.112C281.198 24.112 280.265 23.7433 279.518 23.006C278.771 22.2593 278.398 21.3493 278.398 20.276C278.398 19.2027 278.771 18.2973 279.518 17.56C280.265 16.8133 281.198 16.44 282.318 16.44C283.438 16.44 284.371 16.8133 285.118 17.56C285.865 18.2973 286.238 19.2027 286.238 20.276C286.238 21.3493 285.865 22.2593 285.118 23.006ZM289.843 17.812V21.592C289.843 21.9467 289.937 22.2313 290.123 22.446C290.31 22.6513 290.571 22.754 290.907 22.754C291.243 22.754 291.565 22.5907 291.873 22.264L292.517 23.37C291.967 23.8647 291.355 24.112 290.683 24.112C290.021 24.112 289.451 23.8833 288.975 23.426C288.509 22.9593 288.275 22.334 288.275 21.55V17.812H287.337V16.552H288.275V14.214H289.843V16.552H291.803V17.812H289.843ZM299.341 22.04C299.789 22.488 300.353 22.712 301.035 22.712C301.716 22.712 302.276 22.488 302.715 22.04C303.163 21.5827 303.387 20.9947 303.387 20.276C303.387 19.5573 303.163 18.974 302.715 18.526C302.276 18.0687 301.716 17.84 301.035 17.84C300.353 17.84 299.789 18.0687 299.341 18.526C298.902 18.974 298.683 19.5573 298.683 20.276C298.683 20.9947 298.902 21.5827 299.341 22.04ZM303.835 23.006C303.088 23.7433 302.155 24.112 301.035 24.112C299.915 24.112 298.981 23.7433 298.235 23.006C297.488 22.2593 297.115 21.3493 297.115 20.276C297.115 19.2027 297.488 18.2973 298.235 17.56C298.981 16.8133 299.915 16.44 301.035 16.44C302.155 16.44 303.088 16.8133 303.835 17.56C304.581 18.2973 304.955 19.2027 304.955 20.276C304.955 21.3493 304.581 22.2593 303.835 23.006ZM308.306 19.968V24H306.738V16.552H308.306V17.91C308.558 17.4527 308.903 17.0933 309.342 16.832C309.79 16.5707 310.27 16.44 310.784 16.44C311.624 16.44 312.3 16.6967 312.814 17.21C313.336 17.7233 313.598 18.4653 313.598 19.436V24H312.03V19.912C312.03 18.54 311.46 17.854 310.322 17.854C309.78 17.854 309.309 18.036 308.908 18.4C308.506 18.7547 308.306 19.2773 308.306 19.968ZM317.356 24H315.788V13.612H317.356V24ZM320.568 26.968C319.887 26.968 319.271 26.7207 318.72 26.226L319.434 24.952C319.761 25.26 320.097 25.414 320.442 25.414C320.797 25.414 321.081 25.288 321.296 25.036C321.52 24.784 321.632 24.5087 321.632 24.21C321.632 24.0793 320.629 21.5267 318.622 16.552H320.302L322.528 22.04L324.754 16.552H326.434L322.822 25.4C322.607 25.8853 322.299 26.268 321.898 26.548C321.497 26.828 321.053 26.968 320.568 26.968ZM333.079 19.968V24H331.511V16.552H333.079V17.91C333.303 17.4527 333.639 17.0933 334.087 16.832C334.544 16.5707 335.034 16.44 335.557 16.44C336.733 16.44 337.531 16.9253 337.951 17.896C338.688 16.9253 339.608 16.44 340.709 16.44C341.549 16.44 342.226 16.6967 342.739 17.21C343.262 17.7233 343.523 18.4653 343.523 19.436V24H341.955V19.912C341.955 18.54 341.386 17.854 340.247 17.854C339.715 17.854 339.248 18.0267 338.847 18.372C338.455 18.708 338.25 19.2027 338.231 19.856V24H336.663V19.912C336.663 19.2027 336.537 18.6847 336.285 18.358C336.033 18.022 335.636 17.854 335.095 17.854C334.554 17.854 334.082 18.036 333.681 18.4C333.28 18.7547 333.079 19.2773 333.079 19.968ZM347.438 22.04C347.886 22.488 348.451 22.712 349.132 22.712C349.814 22.712 350.374 22.488 350.812 22.04C351.26 21.5827 351.484 20.9947 351.484 20.276C351.484 19.5573 351.26 18.974 350.812 18.526C350.374 18.0687 349.814 17.84 349.132 17.84C348.451 17.84 347.886 18.0687 347.438 18.526C347 18.974 346.78 19.5573 346.78 20.276C346.78 20.9947 347 21.5827 347.438 22.04ZM351.932 23.006C351.186 23.7433 350.252 24.112 349.132 24.112C348.012 24.112 347.079 23.7433 346.332 23.006C345.586 22.2593 345.212 21.3493 345.212 20.276C345.212 19.2027 345.586 18.2973 346.332 17.56C347.079 16.8133 348.012 16.44 349.132 16.44C350.252 16.44 351.186 16.8133 351.932 17.56C352.679 18.2973 353.052 19.2027 353.052 20.276C353.052 21.3493 352.679 22.2593 351.932 23.006ZM358.741 18.022C357.967 18.022 357.383 18.274 356.991 18.778C356.599 19.282 356.403 19.9587 356.403 20.808V24H354.835V16.552H356.403V18.05C356.655 17.5833 356.996 17.2007 357.425 16.902C357.864 16.6033 358.326 16.4493 358.811 16.44L358.825 18.022C358.797 18.022 358.769 18.022 358.741 18.022ZM367.33 20.962H361.492C361.529 21.5033 361.776 21.942 362.234 22.278C362.691 22.6047 363.214 22.768 363.802 22.768C364.735 22.768 365.444 22.474 365.93 21.886L366.826 22.866C366.023 23.6967 364.978 24.112 363.69 24.112C362.644 24.112 361.753 23.7667 361.016 23.076C360.288 22.376 359.924 21.4427 359.924 20.276C359.924 19.1 360.297 18.1667 361.044 17.476C361.79 16.7853 362.668 16.44 363.676 16.44C364.693 16.44 365.556 16.748 366.266 17.364C366.975 17.9707 367.33 18.8107 367.33 19.884V20.962ZM361.492 19.73H365.762C365.762 19.1047 365.566 18.624 365.174 18.288C364.782 17.952 364.296 17.784 363.718 17.784C363.148 17.784 362.635 17.9613 362.178 18.316C361.72 18.6613 361.492 19.1327 361.492 19.73ZM49.702 36.968V41H48.134V30.626H49.702V34.91C49.926 34.4527 50.262 34.0933 50.71 33.832C51.1673 33.5707 51.6573 33.44 52.18 33.44C53.02 33.44 53.6967 33.6967 54.21 34.21C54.7327 34.7233 54.994 35.4653 54.994 36.436V41H53.426V36.912C53.426 35.54 52.8567 34.854 51.718 34.854C51.1767 34.854 50.7053 35.036 50.304 35.4C49.9027 35.7547 49.702 36.2773 49.702 36.968ZM58.9208 39.04C59.3688 39.488 59.9334 39.712 60.6148 39.712C61.2961 39.712 61.8561 39.488 62.2948 39.04C62.7428 38.5827 62.9668 37.9947 62.9668 37.276C62.9668 36.5573 62.7428 35.974 62.2948 35.526C61.8561 35.0687 61.2961 34.84 60.6148 34.84C59.9334 34.84 59.3688 35.0687 58.9208 35.526C58.4821 35.974 58.2628 36.5573 58.2628 37.276C58.2628 37.9947 58.4821 38.5827 58.9208 39.04ZM63.4148 40.006C62.6681 40.7433 61.7348 41.112 60.6148 41.112C59.4948 41.112 58.5614 40.7433 57.8148 40.006C57.0681 39.2593 56.6948 38.3493 56.6948 37.276C56.6948 36.2027 57.0681 35.2973 57.8148 34.56C58.5614 33.8133 59.4948 33.44 60.6148 33.44C61.7348 33.44 62.6681 33.8133 63.4148 34.56C64.1614 35.2973 64.5348 36.2027 64.5348 37.276C64.5348 38.3493 64.1614 39.2593 63.4148 40.006ZM67.8856 36.968V41H66.3176V33.552H67.8856V34.91C68.1376 34.4527 68.4829 34.0933 68.9216 33.832C69.3696 33.5707 69.8503 33.44 70.3636 33.44C71.2036 33.44 71.8803 33.6967 72.3936 34.21C72.9163 34.7233 73.1776 35.4653 73.1776 36.436V41H71.6096V36.912C71.6096 35.54 71.0403 34.854 69.9016 34.854C69.3603 34.854 68.8889 35.036 68.4876 35.4C68.0863 35.7547 67.8856 36.2773 67.8856 36.968ZM77.1044 39.04C77.5524 39.488 78.117 39.712 78.7984 39.712C79.4797 39.712 80.0397 39.488 80.4784 39.04C80.9264 38.5827 81.1504 37.9947 81.1504 37.276C81.1504 36.5573 80.9264 35.974 80.4784 35.526C80.0397 35.0687 79.4797 34.84 78.7984 34.84C78.117 34.84 77.5524 35.0687 77.1044 35.526C76.6657 35.974 76.4464 36.5573 76.4464 37.276C76.4464 37.9947 76.6657 38.5827 77.1044 39.04ZM81.5984 40.006C80.8517 40.7433 79.9184 41.112 78.7984 41.112C77.6784 41.112 76.745 40.7433 75.9984 40.006C75.2517 39.2593 74.8784 38.3493 74.8784 37.276C74.8784 36.2027 75.2517 35.2973 75.9984 34.56C76.745 33.8133 77.6784 33.44 78.7984 33.44C79.9184 33.44 80.8517 33.8133 81.5984 34.56C82.345 35.2973 82.7184 36.2027 82.7184 37.276C82.7184 38.3493 82.345 39.2593 81.5984 40.006ZM88.4072 35.022C87.6325 35.022 87.0492 35.274 86.6572 35.778C86.2652 36.282 86.0692 36.9587 86.0692 37.808V41H84.5012V33.552H86.0692V35.05C86.3212 34.5833 86.6619 34.2007 87.0912 33.902C87.5299 33.6033 87.9919 33.4493 88.4772 33.44L88.4912 35.022C88.4632 35.022 88.4352 35.022 88.4072 35.022ZM96.0313 41H94.6033V40.006C93.9873 40.7433 93.1613 41.112 92.1253 41.112C91.3506 41.112 90.7066 40.8927 90.1933 40.454C89.6893 40.0153 89.4373 39.432 89.4373 38.704C89.4373 37.9667 89.7079 37.416 90.2493 37.052C90.7906 36.688 91.5233 36.506 92.4473 36.506H94.4773V36.226C94.4773 35.2367 93.9266 34.742 92.8253 34.742C92.1346 34.742 91.4159 34.994 90.6693 35.498L89.9693 34.518C90.8746 33.7993 91.9013 33.44 93.0493 33.44C93.9266 33.44 94.6406 33.664 95.1913 34.112C95.7513 34.5507 96.0313 35.246 96.0313 36.198V41ZM94.4633 38.228V37.598H92.6993C91.5699 37.598 91.0053 37.9527 91.0053 38.662C91.0053 39.026 91.1453 39.306 91.4253 39.502C91.7053 39.6887 92.0926 39.782 92.5873 39.782C93.0913 39.782 93.5299 39.642 93.9033 39.362C94.2766 39.082 94.4633 38.704 94.4633 38.228ZM102.204 33.44C103.203 33.44 104.057 33.7853 104.766 34.476C105.475 35.1667 105.83 36.086 105.83 37.234C105.83 38.382 105.475 39.3153 104.766 40.034C104.066 40.7527 103.245 41.112 102.302 41.112C101.369 41.112 100.529 40.7013 99.7821 39.88V41H98.2141V30.612H99.7821V34.854C100.398 33.9113 101.205 33.44 102.204 33.44ZM99.7541 37.29C99.7541 37.9993 99.9687 38.5827 100.398 39.04C100.827 39.488 101.35 39.712 101.966 39.712C102.582 39.712 103.119 39.488 103.576 39.04C104.033 38.592 104.262 38.0133 104.262 37.304C104.262 36.5853 104.038 35.9927 103.59 35.526C103.142 35.05 102.605 34.812 101.98 34.812C101.355 34.812 100.827 35.05 100.398 35.526C99.9687 35.9927 99.7541 36.5807 99.7541 37.29ZM109.188 41H107.62V30.612H109.188V41ZM118.392 37.962H112.554C112.591 38.5033 112.839 38.942 113.296 39.278C113.753 39.6047 114.276 39.768 114.864 39.768C115.797 39.768 116.507 39.474 116.992 38.886L117.888 39.866C117.085 40.6967 116.04 41.112 114.752 41.112C113.707 41.112 112.815 40.7667 112.078 40.076C111.35 39.376 110.986 38.4427 110.986 37.276C110.986 36.1 111.359 35.1667 112.106 34.476C112.853 33.7853 113.73 33.44 114.738 33.44C115.755 33.44 116.619 33.748 117.328 34.364C118.037 34.9707 118.392 35.8107 118.392 36.884V37.962ZM112.554 36.73H116.824C116.824 36.1047 116.628 35.624 116.236 35.288C115.844 34.952 115.359 34.784 114.78 34.784C114.211 34.784 113.697 34.9613 113.24 35.316C112.783 35.6613 112.554 36.1327 112.554 36.73ZM119.906 40.09C119.906 39.7913 120.009 39.544 120.214 39.348C120.42 39.1427 120.662 39.04 120.942 39.04C121.222 39.04 121.465 39.1427 121.67 39.348C121.885 39.544 121.992 39.782 121.992 40.062C121.992 40.342 121.866 40.6827 121.614 41.084L120.774 42.47H119.962L120.48 41.014C120.098 40.8367 119.906 40.5287 119.906 40.09ZM131.886 33.44C132.884 33.44 133.738 33.7853 134.448 34.476C135.157 35.1667 135.512 36.086 135.512 37.234C135.512 38.382 135.157 39.3153 134.448 40.034C133.748 40.7527 132.926 41.112 131.984 41.112C131.05 41.112 130.21 40.7013 129.464 39.88V41H127.896V30.612H129.464V34.854C130.08 33.9113 130.887 33.44 131.886 33.44ZM129.436 37.29C129.436 37.9993 129.65 38.5827 130.08 39.04C130.509 39.488 131.032 39.712 131.648 39.712C132.264 39.712 132.8 39.488 133.258 39.04C133.715 38.592 133.944 38.0133 133.944 37.304C133.944 36.5853 133.72 35.9927 133.272 35.526C132.824 35.05 132.287 34.812 131.662 34.812C131.036 34.812 130.509 35.05 130.08 35.526C129.65 35.9927 129.436 36.5807 129.436 37.29ZM142.51 37.584V33.552H144.078V41H142.51V39.642C142.258 40.0993 141.908 40.4587 141.46 40.72C141.021 40.9813 140.545 41.112 140.032 41.112C139.192 41.112 138.511 40.8553 137.988 40.342C137.475 39.8287 137.218 39.0867 137.218 38.116V33.552H138.786V37.64C138.786 39.012 139.355 39.698 140.494 39.698C141.035 39.698 141.507 39.5207 141.908 39.166C142.309 38.802 142.51 38.2747 142.51 37.584ZM148.285 34.812V38.592C148.285 38.9467 148.378 39.2313 148.565 39.446C148.751 39.6513 149.013 39.754 149.349 39.754C149.685 39.754 150.007 39.5907 150.315 39.264L150.959 40.37C150.408 40.8647 149.797 41.112 149.125 41.112C148.462 41.112 147.893 40.8833 147.417 40.426C146.95 39.9593 146.717 39.334 146.717 38.55V34.812H145.779V33.552H146.717V31.214H148.285V33.552H150.245V34.812H148.285ZM157.614 36.968V41H156.046V33.552H157.614V34.91C157.838 34.4527 158.174 34.0933 158.622 33.832C159.079 33.5707 159.569 33.44 160.092 33.44C161.268 33.44 162.066 33.9253 162.486 34.896C163.223 33.9253 164.143 33.44 165.244 33.44C166.084 33.44 166.761 33.6967 167.274 34.21C167.797 34.7233 168.058 35.4653 168.058 36.436V41H166.49V36.912C166.49 35.54 165.921 34.854 164.782 34.854C164.25 34.854 163.783 35.0267 163.382 35.372C162.99 35.708 162.785 36.2027 162.766 36.856V41H161.198V36.912C161.198 36.2027 161.072 35.6847 160.82 35.358C160.568 35.022 160.171 34.854 159.63 34.854C159.089 34.854 158.617 35.036 158.216 35.4C157.815 35.7547 157.614 36.2773 157.614 36.968ZM171.974 39.04C172.422 39.488 172.986 39.712 173.668 39.712C174.349 39.712 174.909 39.488 175.348 39.04C175.796 38.5827 176.02 37.9947 176.02 37.276C176.02 36.5573 175.796 35.974 175.348 35.526C174.909 35.0687 174.349 34.84 173.668 34.84C172.986 34.84 172.422 35.0687 171.974 35.526C171.535 35.974 171.316 36.5573 171.316 37.276C171.316 37.9947 171.535 38.5827 171.974 39.04ZM176.468 40.006C175.721 40.7433 174.788 41.112 173.668 41.112C172.548 41.112 171.614 40.7433 170.868 40.006C170.121 39.2593 169.748 38.3493 169.748 37.276C169.748 36.2027 170.121 35.2973 170.868 34.56C171.614 33.8133 172.548 33.44 173.668 33.44C174.788 33.44 175.721 33.8133 176.468 34.56C177.214 35.2973 177.588 36.2027 177.588 37.276C177.588 38.3493 177.214 39.2593 176.468 40.006ZM183.276 35.022C182.502 35.022 181.918 35.274 181.526 35.778C181.134 36.282 180.938 36.9587 180.938 37.808V41H179.37V33.552H180.938V35.05C181.19 34.5833 181.531 34.2007 181.96 33.902C182.399 33.6033 182.861 33.4493 183.346 33.44L183.36 35.022C183.332 35.022 183.304 35.022 183.276 35.022ZM191.865 37.962H186.027C186.064 38.5033 186.311 38.942 186.769 39.278C187.226 39.6047 187.749 39.768 188.337 39.768C189.27 39.768 189.979 39.474 190.465 38.886L191.361 39.866C190.558 40.6967 189.513 41.112 188.225 41.112C187.179 41.112 186.288 40.7667 185.551 40.076C184.823 39.376 184.459 38.4427 184.459 37.276C184.459 36.1 184.832 35.1667 185.579 34.476C186.325 33.7853 187.203 33.44 188.211 33.44C189.228 33.44 190.091 33.748 190.801 34.364C191.51 34.9707 191.865 35.8107 191.865 36.884V37.962ZM186.027 36.73H190.297C190.297 36.1047 190.101 35.624 189.709 35.288C189.317 34.952 188.831 34.784 188.253 34.784C187.683 34.784 187.17 34.9613 186.713 35.316C186.255 35.6613 186.027 36.1327 186.027 36.73ZM202.639 37.584V33.552H204.207V41H202.639V39.642C202.387 40.0993 202.037 40.4587 201.589 40.72C201.15 40.9813 200.674 41.112 200.161 41.112C199.321 41.112 198.64 40.8553 198.117 40.342C197.604 39.8287 197.347 39.0867 197.347 38.116V33.552H198.915V37.64C198.915 39.012 199.484 39.698 200.623 39.698C201.164 39.698 201.636 39.5207 202.037 39.166C202.438 38.802 202.639 38.2747 202.639 37.584ZM211.788 38.774C211.788 39.4833 211.531 40.0527 211.018 40.482C210.504 40.902 209.846 41.112 209.044 41.112C208.502 41.112 207.938 41.014 207.35 40.818C206.771 40.622 206.258 40.3467 205.81 39.992L206.566 38.774C207.434 39.4273 208.274 39.754 209.086 39.754C209.44 39.754 209.72 39.6747 209.926 39.516C210.131 39.348 210.234 39.138 210.234 38.886C210.234 38.5127 209.739 38.1767 208.75 37.878C208.675 37.85 208.619 37.8313 208.582 37.822C207.032 37.402 206.258 36.702 206.258 35.722C206.258 35.0313 206.524 34.4807 207.056 34.07C207.597 33.65 208.297 33.44 209.156 33.44C210.014 33.44 210.826 33.692 211.592 34.196L211.004 35.358C210.397 34.9567 209.739 34.756 209.03 34.756C208.656 34.756 208.353 34.826 208.12 34.966C207.886 35.0967 207.77 35.2973 207.77 35.568C207.77 35.8107 207.891 35.988 208.134 36.1C208.302 36.184 208.535 36.2633 208.834 36.338C209.142 36.4127 209.412 36.4873 209.646 36.562C209.879 36.6367 210.103 36.7207 210.318 36.814C210.542 36.9073 210.78 37.038 211.032 37.206C211.536 37.542 211.788 38.0647 211.788 38.774ZM220.494 37.962H214.656C214.693 38.5033 214.94 38.942 215.398 39.278C215.855 39.6047 216.378 39.768 216.966 39.768C217.899 39.768 218.608 39.474 219.094 38.886L219.99 39.866C219.187 40.6967 218.142 41.112 216.854 41.112C215.808 41.112 214.917 40.7667 214.18 40.076C213.452 39.376 213.088 38.4427 213.088 37.276C213.088 36.1 213.461 35.1667 214.208 34.476C214.954 33.7853 215.832 33.44 216.84 33.44C217.857 33.44 218.72 33.748 219.43 34.364C220.139 34.9707 220.494 35.8107 220.494 36.884V37.962ZM214.656 36.73H218.926C218.926 36.1047 218.73 35.624 218.338 35.288C217.946 34.952 217.46 34.784 216.882 34.784C216.312 34.784 215.799 34.9613 215.342 35.316C214.884 35.6613 214.656 36.1327 214.656 36.73ZM224.095 32.936V33.552H226.055V34.812H224.095V41H222.527V34.812H221.589V33.552H222.527V32.978C222.527 32.194 222.761 31.5733 223.227 31.116C223.703 30.6493 224.273 30.416 224.935 30.416C225.607 30.416 226.219 30.6633 226.769 31.158L226.125 32.264C225.817 31.9373 225.495 31.774 225.159 31.774C224.823 31.774 224.562 31.8813 224.375 32.096C224.189 32.3013 224.095 32.5813 224.095 32.936ZM232.772 37.584V33.552H234.34V41H232.772V39.642C232.52 40.0993 232.17 40.4587 231.722 40.72C231.283 40.9813 230.807 41.112 230.294 41.112C229.454 41.112 228.772 40.8553 228.25 40.342C227.736 39.8287 227.48 39.0867 227.48 38.116V33.552H229.048V37.64C229.048 39.012 229.617 39.698 230.756 39.698C231.297 39.698 231.768 39.5207 232.17 39.166C232.571 38.802 232.772 38.2747 232.772 37.584ZM238.182 41H236.614V30.612H238.182V41ZM246.23 34.812V38.592C246.23 38.9467 246.323 39.2313 246.51 39.446C246.697 39.6513 246.958 39.754 247.294 39.754C247.63 39.754 247.952 39.5907 248.26 39.264L248.904 40.37C248.353 40.8647 247.742 41.112 247.07 41.112C246.407 41.112 245.838 40.8833 245.362 40.426C244.895 39.9593 244.662 39.334 244.662 38.55V34.812H243.724V33.552H244.662V31.214H246.23V33.552H248.19V34.812H246.23ZM251.718 36.968V41H250.15V30.626H251.718V34.91C251.942 34.4527 252.278 34.0933 252.726 33.832C253.183 33.5707 253.673 33.44 254.196 33.44C255.036 33.44 255.712 33.6967 256.226 34.21C256.748 34.7233 257.01 35.4653 257.01 36.436V41H255.442V36.912C255.442 35.54 254.872 34.854 253.734 34.854C253.192 34.854 252.721 35.036 252.32 35.4C251.918 35.7547 251.718 36.2773 251.718 36.968ZM265.234 41H263.806V40.006C263.19 40.7433 262.364 41.112 261.328 41.112C260.554 41.112 259.91 40.8927 259.396 40.454C258.892 40.0153 258.64 39.432 258.64 38.704C258.64 37.9667 258.911 37.416 259.452 37.052C259.994 36.688 260.726 36.506 261.65 36.506H263.68V36.226C263.68 35.2367 263.13 34.742 262.028 34.742C261.338 34.742 260.619 34.994 259.872 35.498L259.172 34.518C260.078 33.7993 261.104 33.44 262.252 33.44C263.13 33.44 263.844 33.664 264.394 34.112C264.954 34.5507 265.234 35.246 265.234 36.198V41ZM263.666 38.228V37.598H261.902C260.773 37.598 260.208 37.9527 260.208 38.662C260.208 39.026 260.348 39.306 260.628 39.502C260.908 39.6887 261.296 39.782 261.79 39.782C262.294 39.782 262.733 39.642 263.106 39.362C263.48 39.082 263.666 38.704 263.666 38.228ZM268.985 36.968V41H267.417V33.552H268.985V34.91C269.237 34.4527 269.583 34.0933 270.021 33.832C270.469 33.5707 270.95 33.44 271.463 33.44C272.303 33.44 272.98 33.6967 273.493 34.21C274.016 34.7233 274.277 35.4653 274.277 36.436V41H272.709V36.912C272.709 35.54 272.14 34.854 271.001 34.854C270.46 34.854 269.989 35.036 269.587 35.4C269.186 35.7547 268.985 36.2773 268.985 36.968ZM286.344 41H284.916V40.006C284.3 40.7433 283.474 41.112 282.438 41.112C281.663 41.112 281.019 40.8927 280.506 40.454C280.002 40.0153 279.75 39.432 279.75 38.704C279.75 37.9667 280.02 37.416 280.562 37.052C281.103 36.688 281.836 36.506 282.76 36.506H284.79V36.226C284.79 35.2367 284.239 34.742 283.138 34.742C282.447 34.742 281.728 34.994 280.982 35.498L280.282 34.518C281.187 33.7993 282.214 33.44 283.362 33.44C284.239 33.44 284.953 33.664 285.504 34.112C286.064 34.5507 286.344 35.246 286.344 36.198V41ZM284.776 38.228V37.598H283.012C281.882 37.598 281.318 37.9527 281.318 38.662C281.318 39.026 281.458 39.306 281.738 39.502C282.018 39.6887 282.405 39.782 282.9 39.782C283.404 39.782 283.842 39.642 284.216 39.362C284.589 39.082 284.776 38.704 284.776 38.228ZM293.936 41H292.368V30.612H293.936V41ZM297.778 41H296.21V33.552H297.778V41ZM296.308 32.068C296.112 31.872 296.014 31.6387 296.014 31.368C296.014 31.0973 296.112 30.864 296.308 30.668C296.504 30.472 296.738 30.374 297.008 30.374C297.279 30.374 297.512 30.472 297.708 30.668C297.904 30.864 298.002 31.0973 298.002 31.368C298.002 31.6387 297.904 31.872 297.708 32.068C297.512 32.264 297.279 32.362 297.008 32.362C296.738 32.362 296.504 32.264 296.308 32.068ZM301.984 32.936V33.552H303.944V34.812H301.984V41H300.416V34.812H299.478V33.552H300.416V32.978C300.416 32.194 300.649 31.5733 301.116 31.116C301.592 30.6493 302.161 30.416 302.824 30.416C303.496 30.416 304.107 30.6633 304.658 31.158L304.014 32.264C303.706 31.9373 303.384 31.774 303.048 31.774C302.712 31.774 302.451 31.8813 302.264 32.096C302.077 32.3013 301.984 32.5813 301.984 32.936ZM312.382 37.962H306.544C306.582 38.5033 306.829 38.942 307.286 39.278C307.744 39.6047 308.266 39.768 308.854 39.768C309.788 39.768 310.497 39.474 310.982 38.886L311.878 39.866C311.076 40.6967 310.03 41.112 308.742 41.112C307.697 41.112 306.806 40.7667 306.068 40.076C305.34 39.376 304.976 38.4427 304.976 37.276C304.976 36.1 305.35 35.1667 306.096 34.476C306.843 33.7853 307.72 33.44 308.728 33.44C309.746 33.44 310.609 33.748 311.318 34.364C312.028 34.9707 312.382 35.8107 312.382 36.884V37.962ZM306.544 36.73H310.814C310.814 36.1047 310.618 35.624 310.226 35.288C309.834 34.952 309.349 34.784 308.77 34.784C308.201 34.784 307.688 34.9613 307.23 35.316C306.773 35.6613 306.544 36.1327 306.544 36.73ZM323.254 38.774C323.254 39.4833 322.998 40.0527 322.484 40.482C321.971 40.902 321.313 41.112 320.51 41.112C319.969 41.112 319.404 41.014 318.816 40.818C318.238 40.622 317.724 40.3467 317.276 39.992L318.032 38.774C318.9 39.4273 319.74 39.754 320.552 39.754C320.907 39.754 321.187 39.6747 321.392 39.516C321.598 39.348 321.7 39.138 321.7 38.886C321.7 38.5127 321.206 38.1767 320.216 37.878C320.142 37.85 320.086 37.8313 320.048 37.822C318.499 37.402 317.724 36.702 317.724 35.722C317.724 35.0313 317.99 34.4807 318.522 34.07C319.064 33.65 319.764 33.44 320.622 33.44C321.481 33.44 322.293 33.692 323.058 34.196L322.47 35.358C321.864 34.9567 321.206 34.756 320.496 34.756C320.123 34.756 319.82 34.826 319.586 34.966C319.353 35.0967 319.236 35.2973 319.236 35.568C319.236 35.8107 319.358 35.988 319.6 36.1C319.768 36.184 320.002 36.2633 320.3 36.338C320.608 36.4127 320.879 36.4873 321.112 36.562C321.346 36.6367 321.57 36.7207 321.784 36.814C322.008 36.9073 322.246 37.038 322.498 37.206C323.002 37.542 323.254 38.0647 323.254 38.774ZM329.02 33.44C330.019 33.44 330.873 33.7853 331.582 34.476C332.292 35.1667 332.646 36.086 332.646 37.234C332.646 38.382 332.292 39.3153 331.582 40.034C330.882 40.7527 330.061 41.112 329.118 41.112C328.185 41.112 327.345 40.7013 326.598 39.88V43.716H325.03V33.552H326.598V34.854C327.214 33.9113 328.022 33.44 329.02 33.44ZM326.57 37.29C326.57 37.9993 326.785 38.5827 327.214 39.04C327.644 39.488 328.166 39.712 328.782 39.712C329.398 39.712 329.935 39.488 330.392 39.04C330.85 38.592 331.078 38.0133 331.078 37.304C331.078 36.5853 330.854 35.9927 330.406 35.526C329.958 35.05 329.422 34.812 328.796 34.812C328.171 34.812 327.644 35.05 327.214 35.526C326.785 35.9927 326.57 36.5807 326.57 37.29ZM341.367 37.962H335.529C335.566 38.5033 335.813 38.942 336.271 39.278C336.728 39.6047 337.251 39.768 337.839 39.768C338.772 39.768 339.481 39.474 339.967 38.886L340.863 39.866C340.06 40.6967 339.015 41.112 337.727 41.112C336.681 41.112 335.79 40.7667 335.053 40.076C334.325 39.376 333.961 38.4427 333.961 37.276C333.961 36.1 334.334 35.1667 335.081 34.476C335.827 33.7853 336.705 33.44 337.713 33.44C338.73 33.44 339.593 33.748 340.303 34.364C341.012 34.9707 341.367 35.8107 341.367 36.884V37.962ZM335.529 36.73H339.799C339.799 36.1047 339.603 35.624 339.211 35.288C338.819 34.952 338.333 34.784 337.755 34.784C337.185 34.784 336.672 34.9613 336.215 35.316C335.757 35.6613 335.529 36.1327 335.529 36.73ZM344.659 36.968V41H343.091V33.552H344.659V34.91C344.911 34.4527 345.256 34.0933 345.695 33.832C346.143 33.5707 346.624 33.44 347.137 33.44C347.977 33.44 348.654 33.6967 349.167 34.21C349.69 34.7233 349.951 35.4653 349.951 36.436V41H348.383V36.912C348.383 35.54 347.814 34.854 346.675 34.854C346.134 34.854 345.662 35.036 345.261 35.4C344.86 35.7547 344.659 36.2773 344.659 36.968ZM353.978 34.812V38.592C353.978 38.9467 354.071 39.2313 354.258 39.446C354.445 39.6513 354.706 39.754 355.042 39.754C355.378 39.754 355.7 39.5907 356.008 39.264L356.652 40.37C356.101 40.8647 355.49 41.112 354.818 41.112C354.155 41.112 353.586 40.8833 353.11 40.426C352.643 39.9593 352.41 39.334 352.41 38.55V34.812H351.472V33.552H352.41V31.214H353.978V33.552H355.938V34.812H353.978ZM51.172 58.112C50.2293 58.112 49.408 57.7573 48.708 57.048C48.008 56.3387 47.658 55.4053 47.658 54.248C47.658 53.0907 48.0173 52.1667 48.736 51.476C49.4547 50.7853 50.3087 50.44 51.298 50.44C52.2967 50.44 53.0993 50.86 53.706 51.7V47.612H55.274V58H53.706V56.88C53.1273 57.7013 52.2827 58.112 51.172 58.112ZM49.226 54.318C49.226 55.0273 49.4547 55.606 49.912 56.054C50.3693 56.502 50.906 56.726 51.522 56.726C52.138 56.726 52.6607 56.502 53.09 56.054C53.5193 55.5967 53.734 55.0133 53.734 54.304C53.734 53.5947 53.5193 53.002 53.09 52.526C52.6607 52.05 52.1333 51.812 51.508 51.812C50.8827 51.812 50.346 52.05 49.898 52.526C49.45 53.002 49.226 53.5993 49.226 54.318ZM59.2763 56.04C59.7243 56.488 60.2889 56.712 60.9703 56.712C61.6516 56.712 62.2116 56.488 62.6503 56.04C63.0983 55.5827 63.3223 54.9947 63.3223 54.276C63.3223 53.5573 63.0983 52.974 62.6503 52.526C62.2116 52.0687 61.6516 51.84 60.9703 51.84C60.2889 51.84 59.7243 52.0687 59.2763 52.526C58.8376 52.974 58.6183 53.5573 58.6183 54.276C58.6183 54.9947 58.8376 55.5827 59.2763 56.04ZM63.7703 57.006C63.0236 57.7433 62.0903 58.112 60.9703 58.112C59.8503 58.112 58.9169 57.7433 58.1703 57.006C57.4236 56.2593 57.0503 55.3493 57.0503 54.276C57.0503 53.2027 57.4236 52.2973 58.1703 51.56C58.9169 50.8133 59.8503 50.44 60.9703 50.44C62.0903 50.44 63.0236 50.8133 63.7703 51.56C64.5169 52.2973 64.8903 53.2027 64.8903 54.276C64.8903 55.3493 64.5169 56.2593 63.7703 57.006ZM68.2411 58H66.6731V50.552H68.2411V58ZM66.7711 49.068C66.5751 48.872 66.4771 48.6387 66.4771 48.368C66.4771 48.0973 66.5751 47.864 66.7711 47.668C66.9671 47.472 67.2004 47.374 67.4711 47.374C67.7417 47.374 67.9751 47.472 68.1711 47.668C68.3671 47.864 68.4651 48.0973 68.4651 48.368C68.4651 48.6387 68.3671 48.872 68.1711 49.068C67.9751 49.264 67.7417 49.362 67.4711 49.362C67.2004 49.362 66.9671 49.264 66.7711 49.068ZM72.0829 53.968V58H70.5149V50.552H72.0829V51.91C72.3349 51.4527 72.6802 51.0933 73.1189 50.832C73.5669 50.5707 74.0475 50.44 74.5609 50.44C75.4009 50.44 76.0775 50.6967 76.5909 51.21C77.1135 51.7233 77.3749 52.4653 77.3749 53.436V58H75.8069V53.912C75.8069 52.54 75.2375 51.854 74.0989 51.854C73.5575 51.854 73.0862 52.036 72.6849 52.4C72.2835 52.7547 72.0829 53.2773 72.0829 53.968ZM86.4536 50.552V57.048C86.4536 58.364 86.0943 59.3487 85.3756 60.002C84.6663 60.6647 83.7516 60.996 82.6316 60.996C81.5116 60.996 80.499 60.646 79.5936 59.946L80.3356 58.756C81.0636 59.3067 81.7963 59.582 82.5336 59.582C83.2803 59.582 83.8683 59.3907 84.2976 59.008C84.7363 58.6253 84.9556 58.014 84.9556 57.174V56.222C84.7223 56.6607 84.3863 57.0107 83.9476 57.272C83.5183 57.5333 83.033 57.664 82.4916 57.664C81.5023 57.664 80.6903 57.3187 80.0556 56.628C79.421 55.9373 79.1036 55.0787 79.1036 54.052C79.1036 53.0253 79.421 52.1667 80.0556 51.476C80.6903 50.7853 81.4976 50.44 82.4776 50.44C83.467 50.44 84.2696 50.846 84.8856 51.658V50.552H86.4536ZM80.6436 53.996C80.6436 54.6027 80.8303 55.13 81.2036 55.578C81.5863 56.0167 82.095 56.236 82.7296 56.236C83.3736 56.236 83.8916 56.0213 84.2836 55.592C84.685 55.1627 84.8856 54.6307 84.8856 53.996C84.8856 53.352 84.685 52.8107 84.2836 52.372C83.8823 51.924 83.3643 51.7 82.7296 51.7C82.095 51.7 81.5863 51.9287 81.2036 52.386C80.8303 52.8433 80.6436 53.38 80.6436 53.996ZM94.1356 53.968V58H92.5676V50.552H94.1356V51.91C94.3876 51.4527 94.7329 51.0933 95.1716 50.832C95.6196 50.5707 96.1003 50.44 96.6136 50.44C97.4536 50.44 98.1303 50.6967 98.6436 51.21C99.1663 51.7233 99.4276 52.4653 99.4276 53.436V58H97.8596V53.912C97.8596 52.54 97.2903 51.854 96.1516 51.854C95.6103 51.854 95.1389 52.036 94.7376 52.4C94.3363 52.7547 94.1356 53.2773 94.1356 53.968ZM103.354 56.04C103.802 56.488 104.367 56.712 105.048 56.712C105.73 56.712 106.29 56.488 106.728 56.04C107.176 55.5827 107.4 54.9947 107.4 54.276C107.4 53.5573 107.176 52.974 106.728 52.526C106.29 52.0687 105.73 51.84 105.048 51.84C104.367 51.84 103.802 52.0687 103.354 52.526C102.916 52.974 102.696 53.5573 102.696 54.276C102.696 54.9947 102.916 55.5827 103.354 56.04ZM107.848 57.006C107.102 57.7433 106.168 58.112 105.048 58.112C103.928 58.112 102.995 57.7433 102.248 57.006C101.502 56.2593 101.128 55.3493 101.128 54.276C101.128 53.2027 101.502 52.2973 102.248 51.56C102.995 50.8133 103.928 50.44 105.048 50.44C106.168 50.44 107.102 50.8133 107.848 51.56C108.595 52.2973 108.968 53.2027 108.968 54.276C108.968 55.3493 108.595 56.2593 107.848 57.006ZM112.574 51.812V55.592C112.574 55.9467 112.667 56.2313 112.854 56.446C113.04 56.6513 113.302 56.754 113.638 56.754C113.974 56.754 114.296 56.5907 114.604 56.264L115.248 57.37C114.697 57.8647 114.086 58.112 113.414 58.112C112.751 58.112 112.182 57.8833 111.706 57.426C111.239 56.9593 111.006 56.334 111.006 55.55V51.812H110.068V50.552H111.006V48.214H112.574V50.552H114.534V51.812H112.574ZM118.061 53.968V58H116.493V47.626H118.061V51.91C118.285 51.4527 118.621 51.0933 119.069 50.832C119.527 50.5707 120.017 50.44 120.539 50.44C121.379 50.44 122.056 50.6967 122.569 51.21C123.092 51.7233 123.353 52.4653 123.353 53.436V58H121.785V53.912C121.785 52.54 121.216 51.854 120.077 51.854C119.536 51.854 119.065 52.036 118.663 52.4C118.262 52.7547 118.061 53.2773 118.061 53.968ZM127.112 58H125.544V50.552H127.112V58ZM125.642 49.068C125.446 48.872 125.348 48.6387 125.348 48.368C125.348 48.0973 125.446 47.864 125.642 47.668C125.838 47.472 126.071 47.374 126.342 47.374C126.613 47.374 126.846 47.472 127.042 47.668C127.238 47.864 127.336 48.0973 127.336 48.368C127.336 48.6387 127.238 48.872 127.042 49.068C126.846 49.264 126.613 49.362 126.342 49.362C126.071 49.362 125.838 49.264 125.642 49.068ZM130.954 53.968V58H129.386V50.552H130.954V51.91C131.206 51.4527 131.551 51.0933 131.99 50.832C132.438 50.5707 132.919 50.44 133.432 50.44C134.272 50.44 134.949 50.6967 135.462 51.21C135.985 51.7233 136.246 52.4653 136.246 53.436V58H134.678V53.912C134.678 52.54 134.109 51.854 132.97 51.854C132.429 51.854 131.957 52.036 131.556 52.4C131.155 52.7547 130.954 53.2773 130.954 53.968ZM145.325 50.552V57.048C145.325 58.364 144.965 59.3487 144.247 60.002C143.537 60.6647 142.623 60.996 141.503 60.996C140.383 60.996 139.37 60.646 138.465 59.946L139.207 58.756C139.935 59.3067 140.667 59.582 141.405 59.582C142.151 59.582 142.739 59.3907 143.169 59.008C143.607 58.6253 143.827 58.014 143.827 57.174V56.222C143.593 56.6607 143.257 57.0107 142.819 57.272C142.389 57.5333 141.904 57.664 141.363 57.664C140.373 57.664 139.561 57.3187 138.927 56.628C138.292 55.9373 137.975 55.0787 137.975 54.052C137.975 53.0253 138.292 52.1667 138.927 51.476C139.561 50.7853 140.369 50.44 141.349 50.44C142.338 50.44 143.141 50.846 143.757 51.658V50.552H145.325ZM139.515 53.996C139.515 54.6027 139.701 55.13 140.075 55.578C140.457 56.0167 140.966 56.236 141.601 56.236C142.245 56.236 142.763 56.0213 143.155 55.592C143.556 55.1627 143.757 54.6307 143.757 53.996C143.757 53.352 143.556 52.8107 143.155 52.372C142.753 51.924 142.235 51.7 141.601 51.7C140.966 51.7 140.457 51.9287 140.075 52.386C139.701 52.8433 139.515 53.38 139.515 53.996ZM147.681 57.804C147.485 57.5987 147.387 57.3513 147.387 57.062C147.387 56.7727 147.485 56.53 147.681 56.334C147.886 56.1287 148.134 56.026 148.423 56.026C148.712 56.026 148.96 56.1287 149.165 56.334C149.37 56.53 149.473 56.7727 149.473 57.062C149.473 57.3513 149.37 57.5987 149.165 57.804C148.96 58.0093 148.712 58.112 148.423 58.112C148.134 58.112 147.886 58.0093 147.681 57.804Z" fill="#8D8D8D"/>
<path d="M368 49H377.95V58.96L373.96 66.94H369L372.97 58.96H368V49Z" fill="#FF6634"/>
<path d="M30 21L20.05 21L20.05 11.04L24.04 3.06L29 3.06L25.03 11.04L30 11.04L30 21Z" fill="#FF6634"/>
<path d="M381 49H390.95V58.96L386.96 66.94H382L385.97 58.96H381V49Z" fill="#FF6634"/>
<path d="M17 21L7.05 21L7.05 11.04L11.04 3.06L16 3.06L12.03 11.04L17 11.04L17 21Z" fill="#FF6634"/>
</svg>
