<svg width="48" height="48" viewBox="0 0 48 48" fill="none" xmlns="http://www.w3.org/2000/svg">
<path d="M30.75 19.8145C30.2445 20.0383 29.7083 20.1848 29.1593 20.2493C29.7373 19.9032 30.1698 19.3589 30.3765 18.7176C29.8329 19.0398 29.2385 19.2673 28.6187 19.3904C28.239 18.9844 27.7459 18.7021 27.2036 18.5802C26.6613 18.4582 26.0949 18.5023 25.578 18.7065C25.061 18.9108 24.6175 19.2659 24.3051 19.7256C23.9927 20.1854 23.8258 20.7285 23.8262 21.2843C23.8262 21.502 23.8504 21.7129 23.8993 21.9149C22.7977 21.8606 21.7198 21.5749 20.736 21.0762C19.7521 20.5776 18.8844 19.8772 18.1894 19.0208C17.9424 19.4435 17.8129 19.9245 17.8142 20.4141C17.8142 21.3743 18.3019 22.2225 19.0466 22.7192C18.6067 22.7053 18.1766 22.5861 17.7923 22.3716V22.407C17.7919 23.0467 18.013 23.6668 18.418 24.1618C18.8231 24.6569 19.3871 24.9965 20.0141 25.1228C19.6063 25.2346 19.1783 25.2512 18.7631 25.1712C18.94 25.7215 19.2843 26.2028 19.748 26.5479C20.2117 26.893 20.7716 27.0846 21.3495 27.096C20.775 27.547 20.1172 27.8802 19.4137 28.0766C18.7103 28.273 17.975 28.3288 17.25 28.2407C18.5159 29.0554 19.9898 29.488 21.4952 29.4867C26.5903 29.4867 29.3769 25.2657 29.3769 21.6049C29.3769 21.4868 29.3724 21.3653 29.3679 21.2466C29.9094 20.8546 30.3773 20.3699 30.75 19.815V19.8145Z" fill="white"/>
<circle cx="24" cy="24" r="23.5" stroke="#393C4D"/>
</svg>
